<?xml version="1.0" standalone="no"?> <!DOCTYPE svg PUBLIC "-//W3C//DTD SVG 20010904//EN" "http://www.w3.org/TR/2001/REC-SVG-20010904/DTD/svg10.dtd"> <svg version="1.0" xmlns="http://www.w3.org/2000/svg" width="600.000000pt" height="589.000000pt" viewBox="0 0 600.000000 589.000000" preserveAspectRatio="xMidYMid meet"> <g transform="translate(0.000000,589.000000) scale(0.100000,-0.100000)" fill="#0061fe" stroke="none"> <path d="M2405 4962 c-33 -10 -85 -31 -115 -47 -58 -29 -183 -148 -213 -202 l-17 -31 47 -48 c116 -116 301 -148 553 -97 144 29 288 90 388 165 l54 40 -24 25 c-60 65 -184 139 -303 180 -97 34 -282 41 -370 15z"/> <path d="M3061 4509 c-138 -48 -168 -56 -192 -47 -38 13 -92 -5 -121 -41 -17 -21 -49 -37 -119 -60 -91 -30 -97 -31 -132 -16 -45 19 -137 19 -180 1 -29 -12 -39 -11 -77 4 -35 14 -47 25 -56 50 -21 62 -89 98 -134 70 -10 -6 -20 -4 -33 8 -16 14 -19 14 -27 2 -13 -20 -13 -87 0 -95 6 -3 10 -15 10 -25 0 -11 12 -31 26 -45 23 -23 33 -26 73 -22 60 6 171 -37 171 -66 0 -29 28 -136 52 -195 20 -51 20 -55 5 -88 -21 -44 -49 -54 -117 -43 -101 16 -168 47 -236 111 l-41 39 -7 -38 c-7 -45 5 -58 104 -108 191 -96 447 -127 695 -85 64 11 120 20 124 20 11 0 45 -113 85 -285 29 -123 46 -171 95 -270 33 -66 76 -145 95 -176 l36 -56 62 9 c121 16 259 67 337 125 l33 26 97 -22 c53 -11 122 -24 154 -27 31 -4 57 -11 57 -17 0 -5 -10 -27 -22 -48 -17 -31 -28 -39 -50 -39 -26 0 -27 -2 -16 -21 12 -19 7 -26 -55 -85 -49 -47 -73 -64 -85 -59 -43 18 -48 17 -47 -12 0 -37 -24 -40 -74 -9 -22 14 -43 26 -46 26 -3 0 4 -18 15 -39 23 -46 22 -46 -57 -71 -30 -9 -55 -21 -56 -26 -2 -17 117 -105 198 -146 128 -65 240 -99 430 -132 185 -31 328 -40 658 -37 l168 1 -15 28 c-39 76 -266 374 -503 659 -59 73 -134 164 -165 205 -143 182 -360 395 -613 600 -122 99 -131 109 -152 164 -103 279 -166 441 -176 450 -9 8 -57 -5 -176 -47z m165 -110 c67 -64 110 -215 84 -293 -19 -58 -103 -107 -295 -170 -186 -61 -422 -91 -499 -64 -46 15 -74 50 -82 100 -6 31 -1 42 36 89 44 56 83 127 93 170 5 21 22 33 83 59 l76 34 19 -25 c10 -13 19 -27 19 -30 0 -11 51 -29 81 -29 71 0 127 67 114 136 -4 24 -2 34 7 35 7 0 40 7 73 14 89 21 151 13 191 -26z m-1162 13 c2 -4 1 -14 -4 -22 -7 -11 -12 -12 -21 -3 -6 6 -8 16 -5 22 8 13 23 14 30 3z m746 -36 c0 -20 -19 -31 -32 -18 -6 6 -7 15 -4 21 10 16 36 13 36 -3z m1650 -1577 c0 -5 -4 -9 -10 -9 -5 0 -10 7 -10 16 0 8 5 12 10 9 6 -3 10 -10 10 -16z m-101 -144 c8 -9 -33 -34 -56 -35 -28 0 -38 16 -21 35 12 14 62 14 77 0z"/> <path d="M4300 2646 c0 -2 7 -6 15 -10 8 -3 15 -1 15 4 0 6 -7 10 -15 10 -8 0 -15 -2 -15 -4z"/> <path d="M1873 3590 c-104 -404 -14 -760 249 -980 64 -54 153 -112 193 -126 11 -4 -7 21 -41 57 -119 125 -207 282 -275 494 -48 147 -89 390 -101 595 -3 44 -3 43 -25 -40z"/> <path d="M2414 3405 c6 -227 36 -387 92 -497 13 -26 26 -48 29 -48 2 0 2 15 -1 33 -53 402 -93 632 -115 667 -7 10 -8 -44 -5 -155z"/> <path d="M4490 2421 c-8 -5 -64 -26 -125 -46 -60 -21 -114 -42 -118 -46 -9 -7 28 -55 208 -269 130 -155 257 -324 305 -406 64 -109 83 -180 78 -284 l-4 -89 38 -17 c48 -22 103 -13 181 28 98 53 162 149 138 210 -22 57 -652 928 -671 928 -8 -1 -22 -4 -30 -9z m120 -230 c0 -5 -6 -12 -12 -15 -7 -3 -3 -3 10 0 25 6 30 -11 5 -20 -19 -8 -34 10 -26 31 6 15 23 18 23 4z"/> <path d="M2718 2133 l-38 -4 6 -57 c6 -56 4 -62 -131 -372 -75 -173 -141 -320 -146 -326 -5 -6 -135 -66 -289 -134 -274 -120 -309 -141 -296 -175 14 -37 41 -35 156 15 62 27 122 52 132 56 11 3 -20 -32 -67 -77 -48 -46 -91 -91 -96 -102 -14 -26 -2 -56 27 -63 20 -5 41 10 140 105 64 61 119 110 121 107 2 -2 -28 -55 -66 -116 -39 -62 -71 -118 -71 -125 0 -24 39 -49 60 -39 11 5 85 110 163 234 l144 225 179 3 c154 2 181 5 192 19 16 22 15 38 -4 57 -13 13 -42 16 -166 16 -138 0 -150 1 -145 18 3 9 62 147 131 305 98 223 126 297 126 331 0 51 -10 107 -19 104 -3 -1 -23 -3 -43 -5z"/> <path d="M3528 2016 c-38 -9 -38 -10 -38 -62 0 -66 -88 -726 -98 -735 -4 -3 -122 -73 -262 -154 -140 -81 -263 -155 -272 -163 -24 -20 -23 -59 2 -72 23 -12 32 -8 186 81 55 33 105 59 110 59 4 0 -14 -24 -42 -52 -98 -103 -115 -128 -112 -161 3 -27 7 -32 33 -35 24 -2 35 4 60 35 44 57 188 213 193 209 2 -3 -22 -63 -52 -136 -31 -72 -56 -137 -56 -144 0 -38 62 -49 84 -13 7 12 57 124 111 250 92 213 99 227 124 227 119 2 335 21 347 30 20 17 17 57 -5 69 -12 7 -70 7 -172 1 -85 -5 -157 -10 -161 -10 -14 0 -9 50 33 351 39 287 49 415 32 428 -4 4 -25 3 -45 -3z"/> </g> </svg>